<?xml version="1.0" standalone="no"?>
<!DOCTYPE svg PUBLIC "-//W3C//DTD SVG 20010904//EN"
 "http://www.w3.org/TR/2001/REC-SVG-20010904/DTD/svg10.dtd">
<svg version="1.0" xmlns="http://www.w3.org/2000/svg"
 width="523.000000pt" height="173.000000pt" viewBox="0 0 523.000000 173.000000"
 preserveAspectRatio="xMidYMid meet">

<g transform="translate(0.000000,173.000000) scale(0.100000,-0.100000)"
fill="#000000" stroke="none">
<path d="M3661 1318 c-123 -21 -188 -140 -149 -272 19 -62 77 -112 193 -166
56 -27 105 -56 109 -65 12 -31 6 -65 -14 -85 -39 -39 -111 -20 -202 54 l-56
45 -16 -39 c-23 -57 -21 -121 4 -153 12 -15 55 -43 97 -64 72 -36 83 -38 169
-38 86 0 95 2 135 30 58 41 77 71 90 138 25 141 -27 222 -200 304 -53 25 -104
52 -113 61 -26 22 -22 47 9 72 38 30 90 20 162 -30 31 -22 60 -40 63 -40 12 0
31 108 24 135 -21 82 -168 136 -305 113z"/>
<path d="M4184 1202 c-28 -10 -63 -26 -78 -35 -24 -16 -25 -19 -11 -40 25 -40
91 -70 133 -63 111 20 118 19 141 -9 20 -26 29 -84 15 -98 -4 -3 -18 0 -33 7
-65 33 -169 29 -224 -8 -54 -36 -77 -81 -77 -148 0 -82 30 -130 113 -183 58
-37 173 -19 228 36 19 19 22 19 38 5 20 -18 84 -46 106 -46 13 0 15 29 15 222
0 216 -1 222 -24 263 -59 101 -209 143 -342 97z m179 -341 c32 -12 26 -49 -13
-91 -23 -25 -36 -30 -74 -30 -39 0 -48 4 -57 24 -33 71 56 130 144 97z"/>
<path d="M4791 1203 c-18 -9 -38 -27 -44 -40 -10 -23 -11 -23 -31 -4 -25 22
-52 36 -88 45 l-28 6 0 -240 c0 -281 4 -299 72 -330 24 -11 53 -20 66 -20 l22
0 0 181 c0 118 4 188 12 202 25 47 66 59 106 31 22 -15 23 -14 50 43 l27 58 5
-205 c3 -138 9 -212 18 -227 18 -32 74 -72 110 -79 l32 -6 0 237 0 238 -26 34
c-40 53 -134 94 -134 58 0 -20 -3 -19 -46 10 -43 29 -76 31 -123 8z"/>
<path d="M2330 877 c0 -342 -5 -374 -66 -445 -57 -67 -103 -86 -206 -87 -57 0
-79 -3 -65 -8 12 -5 61 -7 108 -5 75 3 92 7 134 33 33 21 57 47 79 85 l31 55
3 338 c2 230 0 337 -8 337 -7 0 -10 -98 -10 -303z"/>
<path d="M611 1170 c0 -3 6 -27 14 -54 20 -64 19 -195 -1 -266 -34 -122 -140
-211 -254 -213 -66 -2 -52 -15 17 -16 101 -2 192 59 244 164 22 45 24 63 24
175 0 108 -3 131 -22 170 -12 25 -22 43 -22 40z"/>
<path d="M248 1145 c-33 -18 -64 -68 -73 -118 -9 -46 1 -118 20 -143 13 -17
13 -14 4 21 -29 106 31 222 126 244 l40 9 -45 1 c-25 0 -57 -6 -72 -14z"/>
<path d="M3381 1110 c9 -17 14 -97 17 -244 4 -203 3 -220 -14 -233 -16 -12
-16 -13 9 -13 l27 0 0 190 c0 193 -9 273 -36 306 -14 17 -14 17 -3 -6z"/>
<path d="M1158 878 c2 -190 0 -243 -10 -249 -9 -6 -6 -9 10 -9 l22 0 0 228
c-1 159 -4 234 -13 249 -10 17 -11 -26 -9 -219z"/>
<path d="M1706 1100 c4 -14 9 -120 11 -236 4 -187 3 -212 -12 -227 -15 -16
-15 -17 10 -17 l27 0 -4 218 c-4 176 -8 224 -21 252 -11 22 -15 26 -11 10z"/>
<path d="M2858 875 c3 -227 2 -244 -15 -248 -11 -3 -8 -5 10 -6 l28 -1 -3 240
c-2 142 -7 243 -13 249 -7 7 -9 -71 -7 -234z"/>
<path d="M1433 1080 c-18 -11 -34 -21 -35 -22 -1 -2 -4 -97 -7 -213 l-6 -210
-60 -6 -60 -6 73 -1 72 -2 0 191 c0 120 4 198 11 212 16 31 50 57 77 57 13 0
20 4 17 10 -10 16 -47 12 -82 -10z"/>
<path d="M3119 1085 c-15 -8 -31 -22 -35 -32 -5 -10 -11 -108 -14 -218 l-5
-200 -60 -6 -60 -6 68 -1 67 -2 0 168 c0 92 5 184 11 206 13 47 53 86 88 86
20 0 23 2 11 10 -20 13 -40 12 -71 -5z"/>
<path d="M835 1080 c-31 -5 -36 -8 -22 -14 17 -8 35 -6 122 13 l40 9 -50 -1
c-27 0 -68 -3 -90 -7z"/>
<path d="M2537 1083 c-20 -2 -35 -8 -32 -14 8 -13 50 -11 115 6 l55 13 -50 -1
c-27 0 -67 -2 -88 -4z"/>
<path d="M1994 1061 c-33 -20 -64 -82 -64 -129 0 -34 18 -100 29 -107 5 -2 5
14 0 36 -24 104 34 199 121 199 18 0 29 4 25 10 -10 17 -78 11 -111 -9z"/>
<path d="M885 883 c-34 -9 -55 -35 -55 -69 0 -18 5 -36 10 -39 6 -4 10 6 10
23 0 47 31 67 106 67 35 0 56 3 46 6 -28 11 -96 17 -117 12z"/>
<path d="M2585 883 c-34 -9 -55 -35 -55 -69 0 -18 5 -36 10 -39 6 -3 10 5 10
18 0 14 9 35 19 48 17 21 28 24 85 24 36 0 58 3 48 6 -28 11 -96 17 -117 12z"/>
<path d="M170 543 c0 -183 -2 -202 -17 -206 -11 -3 -7 -5 10 -6 l27 -1 0 193
c0 107 -5 199 -10 207 -6 10 -10 -53 -10 -187z"/>
<path d="M1006 683 c-25 -33 -91 -62 -146 -64 l-45 -1 35 -9 c66 -16 153 14
184 63 18 30 -6 40 -28 11z"/>
<path d="M2170 700 c0 -22 -81 -63 -137 -70 l-58 -6 48 -8 c41 -7 55 -5 105
20 40 21 58 35 60 52 2 12 -1 22 -7 22 -6 0 -11 -4 -11 -10z"/>
<path d="M2706 683 c-25 -34 -91 -62 -146 -64 l-45 -1 35 -8 c19 -5 54 -5 77
-1 66 13 137 75 106 94 -5 3 -16 -6 -27 -20z"/>
<path d="M1940 562 c0 -5 6 -17 14 -27 13 -18 14 -18 9 8 -5 24 -23 39 -23 19z"/>
<path d="M2462 443 c27 -4 27 -4 30 -101 l3 -97 5 103 5 102 -35 -1 c-30 -2
-31 -3 -8 -6z"/>
<path d="M2528 443 c7 -3 16 -2 19 1 4 3 -2 6 -13 5 -11 0 -14 -3 -6 -6z"/>
<path d="M2590 440 c0 -5 7 -7 15 -4 8 4 15 8 15 10 0 2 -7 4 -15 4 -8 0 -15
-4 -15 -10z"/>
<path d="M2654 429 c45 -35 24 -89 -35 -89 -16 0 -29 -4 -29 -9 0 -5 8 -7 18
-5 12 4 23 -6 36 -31 11 -19 26 -41 34 -48 9 -6 3 7 -12 31 l-27 44 25 23 c14
13 26 33 26 45 0 22 -33 60 -51 60 -7 0 0 -9 15 -21z"/>
<path d="M2732 363 c-2 -88 -1 -92 24 -112 34 -27 40 -26 69 4 23 22 25 31 23
112 l-2 88 -5 -90 c-3 -49 -10 -96 -14 -102 -11 -17 -62 -17 -75 0 -6 7 -13
53 -15 103 l-3 89 -2 -92z"/>
<path d="M2900 345 l0 -105 53 2 52 2 -47 3 -48 4 0 49 0 49 43 4 42 4 -42 1
-43 2 0 39 0 40 48 4 47 3 -52 2 -53 2 0 -105z"/>
<path d="M3156 425 c-14 -13 -26 -32 -26 -42 1 -13 5 -11 16 9 30 56 89 64
128 17 28 -33 34 -76 15 -111 -11 -20 -11 -20 -37 4 l-27 23 25 -28 c21 -24
22 -30 10 -37 -48 -31 -109 3 -128 70 -6 19 -11 27 -11 17 -2 -36 26 -82 61
-101 33 -18 37 -18 68 -2 27 13 36 14 49 3 14 -10 14 -10 3 5 -10 12 -11 22
-3 37 6 11 11 38 11 61 0 85 -93 131 -154 75z"/>
<path d="M3352 367 c-2 -81 0 -90 23 -112 29 -30 35 -31 69 -4 25 20 26 24 24
112 l-2 92 -3 -89 c-2 -50 -9 -96 -15 -103 -13 -17 -64 -17 -75 0 -4 6 -11 53
-14 102 l-5 90 -2 -88z"/>
<path d="M3897 443 c21 -4 22 -10 25 -106 l3 -102 5 108 5 107 -30 -1 c-23 -1
-25 -3 -8 -6z"/>
<path d="M4287 430 c-39 -31 -51 -79 -32 -127 18 -45 65 -78 99 -69 13 3 35
18 49 32 22 22 27 36 27 76 0 41 -5 54 -29 79 -35 35 -77 38 -114 9z m108 -15
c19 -18 25 -35 25 -70 0 -111 -129 -134 -159 -29 -25 92 71 163 134 99z"/>
<path d="M4482 343 c1 -62 3 -84 5 -51 l4 57 37 4 37 4 -37 1 c-37 2 -38 3
-38 41 0 39 1 40 38 44 l37 4 -42 1 -43 2 2 -107z"/>
<path d="M4887 443 c-4 -3 -6 -52 -5 -107 1 -64 3 -80 5 -44 l4 57 37 4 37 4
-39 1 -38 2 4 45 c2 25 3 45 2 45 0 0 -4 -3 -7 -7z"/>
<path d="M4923 443 c9 -2 23 -2 30 0 6 3 -1 5 -18 5 -16 0 -22 -2 -12 -5z"/>
<path d="M5016 434 c-3 -9 -5 -28 -5 -42 1 -23 3 -21 8 8 5 32 10 36 46 41
l40 6 -41 2 c-30 1 -44 -4 -48 -15z"/>
<path d="M3576 425 c-3 -9 0 -15 9 -15 16 0 20 16 6 24 -5 3 -11 -1 -15 -9z"/>
<path d="M3702 343 l-2 -103 48 2 47 1 -42 4 -42 4 -4 97 -3 97 -2 -102z"/>
<path d="M3824 345 c0 -55 1 -76 3 -47 2 29 2 74 0 100 -2 26 -3 2 -3 -53z"/>
<path d="M4116 432 c-10 -17 -26 -62 -21 -62 7 0 37 62 32 67 -3 2 -8 0 -11
-5z"/>
<path d="M4694 343 l1 -98 45 -1 45 -1 -42 4 -42 4 -4 95 -3 94 0 -97z"/>
<path d="M3536 324 c-15 -42 -26 -78 -24 -80 2 -2 10 13 17 32 13 35 14 36 62
32 45 -3 48 -1 43 17 -9 27 -36 85 -29 62 19 -69 20 -67 -19 -67 -39 0 -41 4
-26 46 6 15 9 29 7 31 -2 2 -16 -31 -31 -73z"/>
<path d="M4030 395 c0 -11 34 -75 41 -75 4 0 9 9 12 21 4 16 3 18 -8 9 -10 -8
-15 -4 -23 20 -9 26 -22 41 -22 25z"/>
<path d="M5043 353 c15 -2 37 -2 50 0 12 2 0 4 -28 4 -27 0 -38 -2 -22 -4z"/>
<path d="M5014 290 l1 -45 45 -1 45 -1 -42 4 c-41 4 -42 5 -46 46 l-4 42 1
-45z"/>
<path d="M4062 280 c0 -19 2 -27 5 -17 2 9 2 25 0 35 -3 9 -5 1 -5 -18z"/>
<path d="M3646 270 c7 -28 12 -35 18 -29 2 2 -2 15 -10 29 l-15 25 7 -25z"/>
</g>
</svg>
